<?xml version="1.0" encoding="utf-8"?><svg viewBox="0 0 332 142" xmlns="http://www.w3.org/2000/svg" xmlns:xlink="http://www.w3.org/1999/xlink"><style>:root>svg{display:none}:root>svg:target{display:block}</style><svg fill="none" viewBox="0 0 332 142" id="stub-logo" xmlns="http://www.w3.org/2000/svg"><path d="M29.346 81.022c1.114.804 1.956 1.788 2.526 2.954a9.981 9.981 0 0 1 1.087 3.693c.13 1.322.038 2.67-.271 4.044a14.538 14.538 0 0 1-1.399 3.889 13.125 13.125 0 0 1-2.45 3.265 9.746 9.746 0 0 1-3.265 2.177c-.856.337-1.88.635-3.071.895a24.557 24.557 0 0 1-3.889.583c-1.399.13-2.865.154-4.392.077a25.363 25.363 0 0 1-4.588-.584 25.927 25.927 0 0 1-4.394-1.323 15.795 15.795 0 0 1-3.85-2.332 6.233 6.233 0 0 1-1.244-2.526 7.239 7.239 0 0 1-.04-2.684 7.44 7.44 0 0 1 .974-2.45 5.737 5.737 0 0 1 1.826-1.788 5.238 5.238 0 0 1 2.449-.739c.933-.053 1.93.181 2.995.7 1.373.672 2.694 1.19 3.965 1.554 1.296.338 2.45.532 3.46.585 1.037.026 1.893-.104 2.566-.389.675-.284 1.088-.725 1.244-1.321.181-.647.09-1.218-.271-1.712-.364-.492-.92-.88-1.672-1.166-.75-.311-1.686-.532-2.8-.66a27.665 27.665 0 0 0-3.693-.157 3.905 3.905 0 0 1-1.323-1.204 6.198 6.198 0 0 1-.816-1.79 5.96 5.96 0 0 1-.194-2.022c.05-.7.232-1.334.545-1.905.335-.571.816-1.037 1.438-1.4.622-.39 1.425-.597 2.41-.623.934 0 1.777-.025 2.529-.077a15.187 15.187 0 0 0 1.983-.311c.544-.157.959-.35 1.244-.583.31-.233.465-.531.465-.895 0-.571-.22-1.01-.661-1.322-.44-.31-1.024-.531-1.75-.661-.7-.13-1.49-.168-2.37-.117a17.825 17.825 0 0 0-5.054 1.05c-.778.258-1.426.556-1.944.894-.596-.285-1.154-.7-1.672-1.245a8.403 8.403 0 0 1-1.322-1.828 7.614 7.614 0 0 1-.7-2.138 6.123 6.123 0 0 1 0-2.177 4.535 4.535 0 0 1 .934-1.943c.492-.598 1.191-1.077 2.098-1.439a20.61 20.61 0 0 1 4.006-1.127 23.654 23.654 0 0 1 3.966-.35c1.27-.027 2.449.039 3.538.195 1.088.155 2.023.35 2.8.583 1.528.467 2.838 1.05 3.926 1.75 1.088.699 1.994 1.45 2.722 2.254.75.803 1.334 1.645 1.75 2.526.44.882.763 1.738.972 2.566.207.829.324 1.619.35 2.37.025.728.013 1.362-.04 1.907-.13.855-.323 1.659-.583 2.41a8.13 8.13 0 0 1-1.05 2.06v.007Zm29.758-18.739c2.204 0 4.174.22 5.91.66 1.738.441 3.265 1.024 4.588 1.75 1.348.725 2.501 1.541 3.46 2.448.959.882 1.762 1.776 2.41 2.683.649.907 1.167 1.762 1.555 2.567.389.777.688 1.425.896 1.942.906 2.514 1.438 5.029 1.594 7.544.183 2.488-.117 5.027-.893 7.62-2.126 6.817-6.649 11.042-13.57 12.674-2.826.675-5.6.882-8.321.622-2.696-.234-5.34-1.023-7.932-2.371-2.489-1.27-4.458-2.916-5.91-4.937-1.451-2.047-2.475-4.407-3.07-7.077a26.7 26.7 0 0 1-.585-3.849 28.215 28.215 0 0 1-.04-3.889c.078-1.295.248-2.539.506-3.732a15.95 15.95 0 0 1 1.088-3.305 24.331 24.331 0 0 1 2.371-4.08c.986-1.349 2.217-2.555 3.695-3.618 1.477-1.088 3.214-1.97 5.21-2.643 2.022-.675 4.367-1.01 7.037-1.01l.001.001Zm.196 13.918c-.726 0-1.413.154-2.062.467-.647.285-1.218.726-1.71 1.323-.467.596-.83 1.335-1.087 2.215-.26.88-.351 1.906-.272 3.071.077 1.14.298 2.098.662 2.877.362.752.803 1.374 1.321 1.866.518.466 1.063.803 1.633 1.01.595.181 1.153.247 1.672.195a4.576 4.576 0 0 0 1.593-.389 4.44 4.44 0 0 0 1.477-1.05c.468-.492.856-1.114 1.167-1.866.336-.778.532-1.712.583-2.8.077-1.087-.014-2.06-.272-2.915-.26-.882-.622-1.608-1.088-2.178a4.786 4.786 0 0 0-1.634-1.36 4.37 4.37 0 0 0-1.981-.468l-.002.002Zm46.303-13.918c2.203 0 4.173.22 5.91.66 1.737.441 3.266 1.024 4.588 1.75 1.347.725 2.501 1.541 3.459 2.448.959.882 1.762 1.776 2.411 2.683.647.907 1.167 1.762 1.555 2.567.388.777.686 1.425.895 1.942.907 2.514 1.438 5.029 1.593 7.544.181 2.488-.115 5.027-.895 7.62-2.125 6.817-6.649 11.042-13.569 12.674-2.825.675-5.598.882-8.32.622-2.696-.234-5.34-1.023-7.932-2.371-2.489-1.27-4.459-2.916-5.91-4.937-1.451-2.047-2.475-4.407-3.07-7.077a26.48 26.48 0 0 1-.583-3.849 27.965 27.965 0 0 1-.04-3.889c.078-1.295.247-2.539.505-3.732a15.95 15.95 0 0 1 1.088-3.305 24.33 24.33 0 0 1 2.372-4.08c.984-1.349 2.215-2.555 3.693-3.618 1.477-1.088 3.214-1.97 5.21-2.643 2.022-.675 4.367-1.01 7.037-1.01l.003.001Zm.196 13.918c-.728 0-1.414.154-2.061.467-.648.285-1.217.726-1.711 1.323-.466.596-.83 1.335-1.088 2.215-.26.88-.35 1.906-.271 3.071.077 1.14.299 2.098.659 2.877.364.752.804 1.374 1.324 1.866.518.466 1.061.803 1.632 1.01.596.181 1.154.247 1.672.195a4.599 4.599 0 0 0 1.595-.389 4.458 4.458 0 0 0 1.478-1.05c.465-.492.855-1.114 1.166-1.866.336-.778.532-1.712.583-2.8.077-1.087-.013-2.06-.272-2.915-.26-.882-.622-1.608-1.087-2.178a4.822 4.822 0 0 0-1.633-1.36 4.379 4.379 0 0 0-1.983-.468l-.003.002Zm50.474-.973c-1.167-.31-2.241-.415-3.225-.31-.96.076-1.919.361-2.879.855a5.183 5.183 0 0 0-1.709 1.36A5.86 5.86 0 0 0 147.449 79a8.338 8.338 0 0 0-.428 2.177 10.67 10.67 0 0 0 .078 2.215c.154 1.167.505 2.151 1.05 2.956a6.491 6.491 0 0 0 1.983 1.866 7.284 7.284 0 0 0 2.605.933c.959.129 1.932.117 2.916-.04.648-.077 1.334-.26 2.06-.544a25.535 25.535 0 0 0 2.023-.895 33.149 33.149 0 0 0 1.749-.973 40.14 40.14 0 0 1 1.127-.66 5.43 5.43 0 0 1 2.489 1.127 6.85 6.85 0 0 1 1.866 2.178c.492.83.803 1.762.933 2.799s0 2.087-.388 3.15c-.364 1.061-1.024 2.098-1.984 3.11-.933.984-2.228 1.866-3.888 2.643-1.011.466-2.177.816-3.499 1.05a22.744 22.744 0 0 1-4.045.351 30.592 30.592 0 0 1-4.081-.195 26.496 26.496 0 0 1-3.655-.661c-3.397-.881-6.157-2.372-8.283-4.471-2.098-2.127-3.642-4.834-4.626-8.127a26.57 26.57 0 0 1-1.012-6.882c0-2.307.388-4.601 1.167-6.882a17.225 17.225 0 0 1 1.711-3.616 19.074 19.074 0 0 1 2.411-3.07 19.432 19.432 0 0 1 2.877-2.45 21.9 21.9 0 0 1 3.071-1.749c1.296-.57 2.812-1.037 4.548-1.4 1.763-.362 3.629-.519 5.599-.466 1.996.051 4.056.35 6.183.895 2.15.519 4.264 1.374 6.337 2.566.337 1.244.441 2.385.311 3.421-.13 1.037-.428 1.957-.895 2.76a6.718 6.718 0 0 1-1.787 2.023 8.309 8.309 0 0 1-2.372 1.244 7.737 7.737 0 0 1-2.682.388 7.739 7.739 0 0 1-2.645-.545v.002Zm18.243 17.729a85.149 85.149 0 0 1-.117-3.576c-.027-1.504-.04-3.161-.04-4.977 0-1.84.013-3.758.04-5.755.052-2.022.103-3.977.154-5.87.078-1.892.157-3.655.234-5.287.104-1.66.221-3.033.351-4.121a66.075 66.075 0 0 1 3.849-.234c1.476-.077 3.057-.128 4.743-.154 1.709-.027 3.472-.04 5.287-.04 1.814 0 3.576.026 5.288.078 1.71.026 3.331.077 4.859.154 1.529.078 2.877.157 4.044.234.234.336.441.867.622 1.595.207.699.311 1.49.311 2.37 0 .857-.117 1.75-.351 2.683a6.623 6.623 0 0 1-1.244 2.489c-.569.752-1.374 1.374-2.411 1.866-1.01.467-2.294.7-3.849.7h-8.009v2.02c.571 0 1.361-.013 2.371-.038a43.992 43.992 0 0 1 3.227-.04c1.141 0 2.281.052 3.422.156 1.14.103 2.126.284 2.954.544.571 1.295.895 2.526.972 3.693.078 1.167-.103 2.204-.545 3.11-.441.907-1.127 1.648-2.06 2.215-.931.545-2.111.856-3.538.934-.492.024-.96.04-1.399.04h-3.072a55.822 55.822 0 0 0-2.294-.04v2.371h13.376a8.315 8.315 0 0 1 1.4 3.46c.232 1.271.143 2.49-.273 3.656-.389 1.167-1.127 2.189-2.215 3.071-1.063.882-2.513 1.438-4.355 1.672-.544.077-1.257.141-2.137.194-.883.051-1.84.09-2.877.117a72.302 72.302 0 0 1-3.227 0c-1.114 0-2.191-.013-3.227-.04a41.55 41.55 0 0 1-2.76-.154c-.831-.078-1.478-.17-1.944-.272-1.84-.467-3.187-1.387-4.043-2.761-.856-1.4-1.361-3.422-1.516-6.066l-.001.003ZM238.83 81.02c1.114.803 1.955 1.787 2.525 2.954a9.956 9.956 0 0 1 1.089 3.693c.13 1.321.038 2.669-.273 4.043a14.476 14.476 0 0 1-1.401 3.889 13.01 13.01 0 0 1-2.45 3.265 9.718 9.718 0 0 1-3.265 2.177c-.854.338-1.878.635-3.071.895a24.55 24.55 0 0 1-3.887.583c-1.4.13-2.865.155-4.396.077a25.262 25.262 0 0 1-4.586-.584 25.91 25.91 0 0 1-4.394-1.323 15.793 15.793 0 0 1-3.849-2.332c-.622-.777-1.037-1.62-1.244-2.526a7.233 7.233 0 0 1-.04-2.684c.181-.88.505-1.697.973-2.449a5.742 5.742 0 0 1 1.826-1.789 5.24 5.24 0 0 1 2.449-.739c.933-.052 1.931.181 2.994.7 1.374.673 2.695 1.191 3.966 1.555 1.295.337 2.449.531 3.459.584 1.038.026 1.892-.104 2.566-.388.674-.285 1.089-.726 1.244-1.322.182-.647.092-1.218-.272-1.711-.364-.492-.92-.88-1.673-1.167-.751-.311-1.686-.532-2.8-.66a27.665 27.665 0 0 0-3.693-.156 3.886 3.886 0 0 1-1.321-1.205 6.194 6.194 0 0 1-.818-1.789 5.95 5.95 0 0 1-.194-2.022c.051-.7.232-1.335.544-1.906.338-.571.817-1.037 1.439-1.4.622-.389 1.427-.596 2.411-.623.933 0 1.775-.024 2.527-.077a15.09 15.09 0 0 0 1.983-.31c.545-.157.96-.351 1.245-.584.309-.233.467-.531.467-.895 0-.57-.221-1.01-.662-1.321-.439-.311-1.022-.532-1.749-.662-.699-.13-1.489-.168-2.37-.117a17.898 17.898 0 0 0-5.055 1.05c-.777.259-1.425.557-1.944.894-.595-.285-1.153-.7-1.672-1.244a8.41 8.41 0 0 1-1.321-1.828 7.616 7.616 0 0 1-.7-2.138 6.218 6.218 0 0 1 0-2.178 4.551 4.551 0 0 1 .933-1.943c.493-.597 1.194-1.076 2.099-1.438a20.598 20.598 0 0 1 4.005-1.128 23.655 23.655 0 0 1 3.965-.35 21.79 21.79 0 0 1 3.54.196c1.087.154 2.02.349 2.799.582 1.53.468 2.837 1.05 3.925 1.75 1.089.699 1.996 1.451 2.723 2.254.752.803 1.335 1.646 1.75 2.526.439.882.765 1.738.971 2.566.209.83.324 1.62.349 2.371.028.728.013 1.361-.038 1.906-.13.856-.325 1.659-.583 2.41a8.165 8.165 0 0 1-1.05 2.061l.005.007Zm29.759-18.74c2.202 0 4.172.22 5.909.66 1.737.441 3.267 1.024 4.589 1.75 1.347.726 2.501 1.542 3.46 2.449.958.882 1.761 1.775 2.41 2.682.648.907 1.167 1.763 1.557 2.567.388.777.686 1.425.893 1.942.909 2.515 1.44 5.03 1.595 7.544.181 2.488-.117 5.028-.895 7.62-2.125 6.817-6.649 11.042-13.569 12.674-2.826.675-5.599.883-8.319.622-2.696-.233-5.34-1.023-7.932-2.371-2.49-1.27-4.458-2.916-5.911-4.937-1.45-2.047-2.477-4.407-3.071-7.076a26.207 26.207 0 0 1-.583-3.85 27.657 27.657 0 0 1-.039-3.888c.077-1.295.247-2.54.507-3.733a15.969 15.969 0 0 1 1.087-3.304 24.432 24.432 0 0 1 2.372-4.082c.984-1.347 2.217-2.554 3.694-3.617 1.478-1.088 3.214-1.97 5.212-2.643 2.021-.674 4.368-1.01 7.037-1.01l-.003.002Zm.196 13.918c-.728 0-1.414.155-2.062.467-.647.285-1.218.726-1.712 1.324-.466.595-.828 1.334-1.088 2.215-.26.88-.35 1.905-.271 3.07.076 1.14.299 2.099.66 2.877.363.752.804 1.374 1.323 1.866.518.466 1.06.803 1.632 1.01.594.182 1.154.248 1.671.195a4.588 4.588 0 0 0 1.594-.388 4.445 4.445 0 0 0 1.477-1.05c.467-.492.857-1.114 1.166-1.867.339-.778.532-1.711.585-2.799.079-1.088-.012-2.06-.272-2.916-.26-.882-.622-1.608-1.088-2.177a4.81 4.81 0 0 0-1.632-1.361 4.384 4.384 0 0 0-1.983-.468v.002Zm41.092.311h7.465c.026-1.088.039-2.217.039-3.382.025-1.193.038-2.319.038-3.382a84.99 84.99 0 0 1 .117-2.954c.051-.908.115-1.62.196-2.139a7.875 7.875 0 0 1 2.72-1.361 9.752 9.752 0 0 1 3.112-.428c1.062.025 2.1.219 3.109.583a8.36 8.36 0 0 1 2.682 1.555 6.993 6.993 0 0 1 1.908 2.41c.49.932.737 2.022.737 3.266V86.542c0 1.71-.013 3.448-.038 5.21v5.094c0 .674-.013 1.426-.039 2.254 0 .805-.025 1.427-.076 1.866-.286.338-.816.636-1.596.896-.779.26-1.671.441-2.683.544-1.012.13-2.075.157-3.187.078a10.024 10.024 0 0 1-3.073-.7 6.775 6.775 0 0 1-2.45-1.672c-.673-.75-1.088-1.71-1.243-2.876a21.197 21.197 0 0 1-.196-1.867l-.077-2.331c-.025-.803-.051-1.556-.076-2.255v-1.712h-7.272v11.937c-.364.337-.958.648-1.787.933-.803.284-1.725.492-2.762.622-1.035.13-2.113.13-3.225 0a8.04 8.04 0 0 1-3.11-.933c-.934-.519-1.737-1.271-2.413-2.255-.647-.984-1.022-2.268-1.126-3.85-.052-.699-.105-1.775-.156-3.226a664.99 664.99 0 0 1-.155-4.937c-.051-1.866-.102-3.836-.154-5.91a460.728 460.728 0 0 1-.042-6.143c0-2.023.014-3.914.042-5.676.024-1.763.075-3.227.154-4.394a9.41 9.41 0 0 1 2.8-1.593 9.505 9.505 0 0 1 3.11-.622 10.068 10.068 0 0 1 3.071.31 8.09 8.09 0 0 1 2.646 1.128 6.314 6.314 0 0 1 1.942 1.944c.518.75.829 1.619.933 2.605.077.856.13 1.71.156 2.565.025.856.038 1.635.038 2.334 0 .701-.013 1.284-.038 1.75-.028.467-.041.751-.041.855v-.005Z" fill="#FE5B00"/><path d="M127.954 45.216c2.461 1.06 3.14 2.207 4.414 2.29 2.548.213 3.609-2.334 2.548-4.243-1.231-2.25-3.185-2.973-5.986-4.245 2.462 1.062 4.755 2.25 6.027 2.377 2.547.212 3.141-2.207 2.207-4.159-1.062-2.25-4.712-3.693-7.554-4.711.043-.68-.933-3.056-.892-3.777.425-4.329 1.019-7.088.551-11.545-.976-8.7-4.201-12.987-13.92.764-.807-.34-1.783-.68-2.93-.933-.806-.17-1.529-.255-2.164-.255h-.679a24.28 24.28 0 0 0-2.165.255c-1.145.212-2.164.594-2.929.933-9.72-13.71-12.945-9.422-13.92-.723-.468 4.457.085 7.215.55 11.545.086.722-.89 3.056-.89 3.778-2.843 1.019-6.493 2.462-7.553 4.712-.935 1.952-.298 4.37 2.207 4.158 1.316-.126 3.609-1.273 6.026-2.376-2.8 1.274-4.753 1.996-5.984 4.244-1.061 1.91.043 4.457 2.548 4.245 1.315-.127 1.995-1.231 4.414-2.293 4.922 5.008 10.227 9.04 17.654 9.803h.68c7.513-.806 12.818-4.838 17.742-9.846l-.002.002Z" fill="#fff" stroke="#7CB932" stroke-miterlimit="22.926" stroke-linecap="round" stroke-linejoin="round"/><path d="M58.772 42.073c1.443 8.404-5.729 13.496-10.865 12.945-2.843-.298-5.093-1.36-6.749-2.93-3.862-3.691-3.099-9.507-2.843-11.67.126-.934.678-1.911.892-3.736l.51-6.409c-3.905-1.486-3.142-8.658-1.911-16.341 2.121-13.327 7.809-19.31 14.05-2.97 2.502 6.534 3.478 4.752 7.34 4.668h.298c3.863.086 4.839 1.825 7.342-4.712C73.075-5.464 78.805.52 80.885 13.888c1.23 7.683 1.953 14.855-1.91 16.34l.51 6.409c.212 1.782.763 2.801.891 3.736.255 2.164 1.062 7.978-2.843 11.67-1.654 1.57-3.906 2.632-6.748 2.93-5.093.551-12.265-4.542-10.864-12.945l-1.146.043-.003.002Z" fill="#fff"/><path fill-rule="evenodd" clip-rule="evenodd" d="M58.772 42.073c1.443 8.404-5.729 13.496-10.865 12.945-2.843-.298-5.093-1.36-6.749-2.93-3.862-3.691-3.099-9.507-2.843-11.67.126-.934.678-1.911.892-3.736l.51-6.409c-3.905-1.486-3.142-8.658-1.911-16.341 2.121-13.327 7.809-19.31 14.05-2.97 2.502 6.534 3.478 4.752 7.34 4.668h.298c3.863.086 4.839 1.825 7.342-4.712C73.075-5.464 78.805.52 80.885 13.888c1.23 7.683 1.953 14.855-1.91 16.34l.51 6.409c.212 1.782.763 2.801.891 3.736.255 2.164 1.062 7.978-2.843 11.67-1.654 1.57-3.906 2.632-6.748 2.93-5.093.551-12.265-4.542-10.864-12.945l-1.146.043-.003.002Z" fill="#FEFEFE"/><path d="M58.772 42.073c1.443 8.404-5.729 13.496-10.865 12.945-2.843-.298-5.093-1.36-6.749-2.93-3.862-3.691-3.099-9.507-2.843-11.67.126-.934.678-1.911.892-3.736l.51-6.409c-3.905-1.486-3.142-8.658-1.911-16.341 2.121-13.327 7.809-19.31 14.05-2.97 2.502 6.534 3.478 4.752 7.34 4.668h.298c3.863.086 4.839 1.825 7.342-4.712C73.075-5.464 78.805.52 80.885 13.888c1.23 7.683 1.953 14.855-1.91 16.34l.51 6.409c.212 1.782.763 2.801.891 3.736.255 2.164 1.062 7.978-2.843 11.67-1.654 1.57-3.906 2.632-6.748 2.93-5.093.551-12.265-4.542-10.864-12.945" stroke="#7CB932" stroke-miterlimit="22.926" stroke-linecap="round" stroke-linejoin="round"/><path d="M52.533 34.562a3.312 3.312 0 1 0 0-6.623 3.312 3.312 0 0 0 0 6.623ZM43.367 23.822c.466.129.89-1.527 2.29-2.97 1.146-1.231 2.548-1.868 3.65-2.207-1.357-3.142-2.758-6.24-4.117-9.38a32.415 32.415 0 0 0-1.823 6.408c-.382 2.08-.382 3.352-.382 5.56 0 1.868.127 2.504.382 2.59ZM61.064 43.302l2.08-3.565c.721-1.273-.17-2.886-1.655-2.886h-4.117c-1.487 0-2.42 1.613-1.656 2.886l2.08 3.565c.637 1.274 2.505 1.274 3.268 0ZM66.242 34.562a3.311 3.311 0 1 0-.001-6.623 3.311 3.311 0 0 0 0 6.623ZM75.367 23.778c-.466.126-.892-1.53-2.293-2.972-1.145-1.231-2.545-1.868-3.648-2.207 1.358-3.142 2.758-6.239 4.116-9.38a32.505 32.505 0 0 1 1.825 6.408c.382 2.08.382 3.354.382 5.56.043 1.911-.086 2.548-.382 2.59Z" fill="#7CB932"/><path d="M59.366 41.054c.586 0 1.062-.362 1.062-.808 0-.444-.476-.806-1.062-.806-.586 0-1.061.36-1.061.806 0 .446.475.808 1.061.808Z" fill="#fff"/><path d="M102.869 34.9a3.312 3.312 0 1 0 0-6.62 3.312 3.312 0 0 0 0 6.62ZM95.528 24.968c.34.042.551-1.103 1.486-2.207.764-.933 1.741-1.486 2.505-1.825l-3.82-5.984a20.8 20.8 0 0 0-.849 4.5c-.085 1.442 0 2.292.17 3.778.126 1.315.296 1.74.51 1.74l-.002-.002ZM111.062 43.855l2.206-3.395c.595-.892-.042-2.08-1.145-2.08h-4.414c-1.061 0-1.696 1.188-1.145 2.08l2.207 3.395c.594.806 1.782.806 2.291 0ZM117.002 34.9a3.312 3.312 0 1 0 0-6.625 3.312 3.312 0 0 0 0 6.624ZM124.388 24.968c-.339.042-.551-1.103-1.484-2.207-.764-.933-1.741-1.486-2.505-1.825l3.821-5.984c.552 1.825.764 3.352.85 4.5.085 1.442 0 2.292-.17 3.778-.169 1.315-.341 1.74-.51 1.74l-.002-.002Z" fill="#7CB932"/><path d="M95.783 45.851c-2.376 0-4.33-4.158-4.33-9.295 0-5.136 1.952-9.294 4.33-9.294v18.59Z" fill="#fff"/><path fill-rule="evenodd" clip-rule="evenodd" d="M95.783 45.851c-2.376 0-4.33-4.158-4.33-9.295 0-5.136 1.952-9.294 4.33-9.294v18.59Z" fill="#FEFEFE"/><path d="M95.783 45.851c-2.376 0-4.33-4.158-4.33-9.295 0-5.136 1.952-9.294 4.33-9.294" stroke="#fff" stroke-miterlimit="22.926" stroke-linecap="round" stroke-linejoin="round"/><path d="M124.006 45.68c2.377 0 4.329-4.159 4.329-9.293 0-5.136-1.952-9.295-4.329-9.295v18.59-.002Z" fill="#fff"/><path fill-rule="evenodd" clip-rule="evenodd" d="M124.006 45.68c2.377 0 4.329-4.159 4.329-9.293 0-5.136-1.952-9.295-4.329-9.295v18.59-.002Z" fill="#FEFEFE"/><path d="M124.006 45.68c2.377 0 4.329-4.159 4.329-9.293 0-5.136-1.952-9.295-4.329-9.295" stroke="#fff" stroke-miterlimit="22.926" stroke-linecap="round" stroke-linejoin="round"/><path d="m22.347 132.297 3.4.859c-.71 2.786-1.987 4.904-3.83 6.365-1.843 1.462-4.098 2.196-6.765 2.196-2.757 0-5-.562-6.73-1.689-1.73-1.122-3.042-2.75-3.943-4.879-.9-2.136-1.354-4.421-1.354-6.868 0-2.666.507-4.993 1.527-6.979 1.02-1.986 2.47-3.495 4.35-4.527 1.88-1.032 3.95-1.546 6.204-1.546 2.566 0 4.718.651 6.46 1.957 1.749 1.307 2.965 3.138 3.651 5.5l-3.33.788c-.59-1.861-1.454-3.22-2.581-4.068-1.127-.852-2.548-1.277-4.26-1.277-1.963 0-3.608.472-4.926 1.414-1.319.943-2.248 2.213-2.78 3.8a15.317 15.317 0 0 0-.805 4.922c0 2.177.316 4.08.948 5.704.632 1.627 1.616 2.839 2.953 3.645a8.246 8.246 0 0 0 4.336 1.205c1.896 0 3.495-.548 4.809-1.641 1.313-1.098 2.2-2.72 2.666-4.88v-.001Zm7.665-16.638h3.4v11.238c1.545 0 2.636-.304 3.263-.906.632-.603 1.432-2.046 2.411-4.337.71-1.688 1.294-2.875 1.76-3.568.459-.697 1.115-1.282 1.968-1.754.847-.472 1.789-.709 2.816-.709 1.306 0 1.992.011 2.063.036v2.936c-.118 0-.345-.007-.68-.018a32.376 32.376 0 0 0-.686-.018c-1.08 0-1.884.263-2.409.788-.536.525-1.145 1.647-1.837 3.359-.859 2.172-1.586 3.543-2.183 4.111a6.936 6.936 0 0 1-2.13 1.354c1.652.453 3.287 1.986 4.898 4.588l5.279 8.531h-4.211l-4.3-6.943c-1.175-1.927-2.16-3.252-2.948-3.967-.793-.723-1.813-1.08-3.072-1.08v11.99h-3.4v-25.628l-.002-.003Zm19.34 13.154c0-4.248 1.146-7.577 3.43-9.981 2.284-2.404 5.231-3.603 8.847-3.603 2.368 0 4.497.568 6.402 1.696 1.897 1.127 3.347 2.702 4.342 4.724.996 2.016 1.498 4.307 1.498 6.866 0 2.595-.525 4.922-1.575 6.968-1.05 2.052-2.534 3.602-4.456 4.654-1.928 1.056-4.003 1.581-6.23 1.581-2.415 0-4.57-.584-6.472-1.747a11.232 11.232 0 0 1-4.318-4.766 14.41 14.41 0 0 1-1.468-6.39v-.002Zm3.509.059c0 3.084.83 5.511 2.488 7.284 1.659 1.771 3.74 2.661 6.245 2.661 2.553 0 4.648-.895 6.3-2.684 1.646-1.789 2.47-4.332 2.47-7.625 0-2.081-.352-3.901-1.056-5.452-.705-1.552-1.737-2.756-3.091-3.609-1.36-.852-2.882-1.282-4.57-1.282-2.398 0-4.463.823-6.193 2.471-1.73 1.647-2.595 4.39-2.595 8.238l.002-.002Zm25.371 12.413v-25.628h9.675c1.7 0 3 .084 3.902.246 1.259.209 2.314.608 3.168 1.193.852.59 1.538 1.413 2.058 2.47.519 1.056.776 2.22.776 3.49 0 2.173-.692 4.014-2.082 5.518-1.384 1.509-3.895 2.261-7.522 2.261h-6.575v10.452h-3.4v-.002Zm3.4-13.458h6.622c2.195 0 3.746-.406 4.67-1.223.919-.818 1.38-1.963 1.38-3.447 0-1.068-.269-1.987-.812-2.75a3.82 3.82 0 0 0-2.14-1.516c-.573-.15-1.63-.227-3.162-.227h-6.556v9.163h-.002Zm18.647.984c0-4.247 1.146-7.576 3.43-9.981 2.284-2.404 5.231-3.602 8.847-3.602 2.368 0 4.497.568 6.402 1.695 1.897 1.127 3.347 2.702 4.342 4.725.996 2.016 1.498 4.306 1.498 6.865 0 2.596-.525 4.923-1.575 6.968-1.05 2.052-2.534 3.603-4.456 4.654-1.927 1.057-4.003 1.582-6.229 1.582-2.416 0-4.57-.585-6.473-1.748a11.237 11.237 0 0 1-4.318-4.766 14.41 14.41 0 0 1-1.468-6.39v-.002Zm3.509.059c0 3.084.829 5.512 2.488 7.284 1.659 1.771 3.741 2.661 6.245 2.661 2.553 0 4.648-.895 6.3-2.684 1.646-1.789 2.47-4.331 2.47-7.624 0-2.082-.352-3.902-1.056-5.452-.705-1.552-1.737-2.757-3.091-3.609-1.359-.853-2.882-1.282-4.57-1.282-2.398 0-4.463.823-6.193 2.47-1.729 1.647-2.595 4.391-2.595 8.238l.002-.002Zm34.277-.059c0-4.247 1.146-7.576 3.43-9.981 2.284-2.404 5.232-3.602 8.847-3.602 2.368 0 4.498.568 6.402 1.695 1.897 1.127 3.347 2.702 4.343 4.725.995 2.016 1.497 4.306 1.497 6.865 0 2.596-.525 4.923-1.575 6.968-1.05 2.052-2.534 3.603-4.456 4.654-1.927 1.057-4.002 1.582-6.229 1.582-2.416 0-4.57-.585-6.472-1.748a11.233 11.233 0 0 1-4.319-4.766 14.41 14.41 0 0 1-1.468-6.39v-.002Zm3.509.059c0 3.084.829 5.512 2.488 7.284 1.659 1.771 3.741 2.661 6.246 2.661 2.552 0 4.647-.895 6.299-2.684 1.646-1.789 2.47-4.331 2.47-7.624 0-2.082-.352-3.902-1.056-5.452-.704-1.552-1.736-2.757-3.091-3.609-1.359-.853-2.881-1.282-4.57-1.282-2.397 0-4.463.823-6.192 2.47-1.73 1.647-2.596 4.391-2.596 8.238l.002-.002Zm31.885 12.414v-22.622h-8.447v-3.006h20.294v3.006h-8.447v22.622h-3.4Zm15.422-25.628h3.4v11.238c1.545 0 2.636-.304 3.263-.907.632-.602 1.432-2.045 2.411-4.336.709-1.689 1.293-2.875 1.759-3.568.459-.698 1.116-1.282 1.968-1.754.848-.473 1.789-.709 2.816-.709 1.307 0 1.993.011 2.064.036v2.936c-.119 0-.346-.007-.68-.019-.375-.011-.602-.018-.686-.018-1.08 0-1.884.264-2.409.789-.537.525-1.146 1.647-1.837 3.358-.859 2.173-1.586 3.544-2.184 4.111a6.93 6.93 0 0 1-2.129 1.355c1.652.452 3.286 1.986 4.897 4.588l5.28 8.531h-4.212l-4.3-6.943c-1.175-1.927-2.159-3.252-2.947-3.968-.794-.722-1.814-1.079-3.073-1.079v11.99h-3.4v-25.628l-.001-.003Zm20.778 25.628v-25.628h9.675c1.7 0 3 .084 3.902.245 1.259.209 2.314.609 3.168 1.193.852.591 1.538 1.414 2.058 2.47.519 1.057.775 2.22.775 3.491 0 2.172-.691 4.013-2.081 5.518-1.384 1.509-3.896 2.261-7.523 2.261h-6.574v10.451h-3.4v-.001Zm3.4-13.459h6.622c2.195 0 3.746-.406 4.67-1.222.919-.818 1.38-1.964 1.38-3.448 0-1.068-.269-1.986-.812-2.75a3.829 3.829 0 0 0-2.141-1.516c-.573-.149-1.629-.227-3.161-.227h-6.557v9.163h-.001Zm20.651-12.169h3.4v10.917h6.103c4.002 0 6.633.741 7.899 2.225 1.259 1.48 1.891 3.161 1.891 5.041 0 1.986-.675 3.722-2.029 5.213-1.348 1.486-3.855 2.232-7.523 2.232h-9.742v-25.628h.001Zm3.4 22.728h6.182c2.124 0 3.668-.359 4.624-1.073.959-.716 1.437-1.861 1.437-3.436 0-1.068-.292-1.968-.871-2.691a3.819 3.819 0 0 0-2.25-1.377c-.911-.198-2.445-.298-4.593-.298h-4.529v8.877-.002Zm18.97-22.728h3.4v25.628h-3.4v-25.628Zm15.654 25.628v-22.622h-8.448v-3.006h20.295v3.006h-8.447v22.622h-3.4Zm15.421-25.628h3.079v20.294l13.643-20.294h3.359v25.628h-3.079v-20.24l-13.608 20.24h-3.395v-25.628h.001Zm25.73 25.628v-25.628h18.504v3.006h-15.104v7.875h14.138v3.007h-14.138v8.733h15.713v3.007h-19.113Z" fill="#FE5B00"/></svg></svg>